# xmcd CD database file
#
# Track frame offsets:
#        150
#        9985
#        23757
#        28412
#        34962
#        41360
#        47062
#        52370
#        58650
#        63362
#        72052
#        84890
#        94812
#        102502
#        113820
#        120380
#        126710
#        134975
#        141825
#        152120
#
# Disc length: 2133 seconds
#
# Revision: 0
# Processed by: cddbd v1.5.2PL0 Copyright (c) Steve Scherf et al.
# Submitted via: CUERipper 2.1.4
#
DISCID=25085314
DTITLE=Various Artist - 亲亲小宝贝4--月光光
DYEAR=1997
DGENRE=Vocal
TTITLE0=元旦-新的开始
TTITLE1=新年-祝福你
TTITLE2=新年-欢欢喜喜过新年
TTITLE3=新年-为你祝新岁
TTITLE4=植树节-植树节
TTITLE5=复活节-复活节
TTITLE6=复活节-复活蛋
TTITLE7=愚人节-愚人节
TTITLE8=儿童节-儿童节
TTITLE9=母亲节-妈妈好
TTITLE10=端午节-爬龙船
TTITLE11=父亲节-爸爸的宝贝
TTITLE12=乞巧节-乞巧节
TTITLE13=中秋节-月光光
TTITLE14=中秋节-明月照千家
TTITLE15=重阳节-重九登高
TTITLE16=万圣节-古怪万圣节
TTITLE17=圣诞节-小雪人
TTITLE18=圣诞节-鹿车到了
TTITLE19=圣诞节-平安夜
EXTD=
EXTT0=
EXTT1=
EXTT2=
EXTT3=
EXTT4=
EXTT5=
EXTT6=
EXTT7=
EXTT8=
EXTT9=
EXTT10=
EXTT11=
EXTT12=
EXTT13=
EXTT14=
EXTT15=
EXTT16=
EXTT17=
EXTT18=
EXTT19=
PLAYORDER=
